<?xml version="1.0" encoding="UTF-8"?>
<!DOCTYPE svg PUBLIC "-//W3C//DTD SVG 1.1//EN" "http://www.w3.org/Graphics/SVG/1.1/DTD/svg11.dtd">
<svg xmlns="http://www.w3.org/2000/svg" xml:space="preserve" width="1693px" height="481px" version="1.1" style="shape-rendering:geometricPrecision; text-rendering:geometricPrecision; image-rendering:optimizeQuality; fill-rule:evenodd; clip-rule:evenodd"
viewBox="0 0 1817.31 516.58"
 xmlns:xlink="http://www.w3.org/1999/xlink">
 <defs>
  <style type="text/css">
   <![CDATA[
    .fil0 {fill:#FEFEFE}
    .fil1 {fill:#FEFEFE;fill-rule:nonzero}
    .fil2 {fill:#FEFEFE;fill-rule:nonzero}
   ]]>
  </style>
 </defs>
 <g id="Capa_x0020_1">
  <path class="fil0" d="M421.06 126.45c2.92,-14.06 16.7,-23.09 30.77,-20.17 14.06,2.93 23.09,16.7 20.17,30.77l-69.24 329.18c-2.97,14.14 -11.16,26.74 -21.94,35.65 -10.98,9.07 -24.97,14.7 -39.32,14.7l-291.36 0c-3.72,0 -7.62,-0.47 -11.61,-1.35 -11.47,-2.56 -21.08,-8.67 -27.87,-17.19 -6.79,-8.52 -10.66,-19.19 -10.66,-30.88 0,-3.58 0.46,-7.54 1.42,-11.83l75.55 -338.76c8.03,-36.04 22.76,-64.68 45.3,-84.83 23.2,-20.74 53.37,-31.74 91.52,-31.74l225.39 0c4.53,0 12.91,0.89 22.69,3.51 16.5,4.42 39.07,14.19 57.71,34.04 18.59,19.81 33,48.99 33,91.57 0,18.34 -2.74,39.37 -9.12,63.42l-51.54 265.24c-2.7,14.12 -16.34,23.38 -30.46,20.68 -14.13,-2.7 -23.39,-16.34 -20.69,-30.46l51.76 -266.35 0.41 -1.83c5.24,-19.56 7.48,-36.33 7.48,-50.7 0,-27.13 -8.19,-44.66 -18.74,-55.91 -10.49,-11.18 -23.6,-16.78 -33.26,-19.37 -4.66,-1.25 -7.83,-1.68 -9.24,-1.68l-225.39 0c-24.8,0 -43.51,6.34 -56.88,18.29 -14.03,12.54 -23.55,31.95 -29.21,57.33l-75.07 336.64 288.87 0c1.91,0 4.11,-1.03 6.1,-2.68 2.19,-1.8 3.78,-3.99 4.22,-6.11l69.24 -329.18z"/>
  <path class="fil1" d="M347.52 138.09c12.35,0 22.36,10.01 22.36,22.36 0,12.35 -10.01,22.36 -22.36,22.36l-155.53 0c-12.35,0 -22.36,-10.01 -22.36,-22.36 0,-12.35 10.01,-22.36 22.36,-22.36l155.53 0z"/>
  <path class="fil1" d="M326.94 235.93c12.35,0 22.36,10.01 22.36,22.36 0,12.35 -10.01,22.36 -22.36,22.36l-155.53 0c-12.35,0 -22.36,-10.01 -22.36,-22.36 0,-12.35 10.01,-22.36 22.36,-22.36l155.53 0z"/>
  <path class="fil1" d="M306.36 333.77c12.35,0 22.36,10.02 22.36,22.37 0,12.34 -10.01,22.36 -22.36,22.36l-155.53 0c-12.34,0 -22.36,-10.02 -22.36,-22.36 0,-12.35 10.02,-22.37 22.36,-22.37l155.53 0z"/>
  <path class="fil2" d="M650.16 410.12l37.04 0 71.92 -113.32 29.63 113.32 38.35 0 126.83 -211.81 -76.27 0 -58.84 101.11 -25.71 -101.98 -37.92 0 -62.76 101.98 -20.05 -101.11 -67.55 0 45.33 211.81zm290.26 -93.27c0,54.48 37.05,97.19 89.78,97.19 20.92,0 44.46,-7.84 56.66,-19.61l-2.62 14.38 66.69 0 40.96 -210.5 -66.68 0 -3.48 16.12c-16.13,-13.51 -39.66,-21.79 -63.64,-21.79 -29.2,0 -54.47,9.15 -74.96,27.46 -20.48,18.3 -33.99,42.27 -40.1,71.47 -1.74,8.72 -2.61,17 -2.61,25.28zm165.18 -21.35c0,30.94 -25.71,57.53 -55.35,57.53 -25.71,0 -41.84,-16.57 -41.84,-40.97 0,-4.36 0.44,-8.72 1.31,-13.08 5.23,-26.15 27.02,-45.76 53.17,-45.76 26.58,0 42.71,17.43 42.71,42.28zm91.52 113.31l69.3 0 61.89 -318.15 -69.3 0 -61.89 318.15zm162.57 -277.19c0,22.67 17.43,39.66 41.4,39.66 23.1,0 40.97,-16.99 40.97,-39.66 0,-22.66 -17,-39.22 -40.97,-39.22 -23.97,0 -41.4,16.56 -41.4,39.22zm-4.8 66.69l-41.4 210.5 68.86 0 40.97 -210.5 -68.43 0zm69.74 160.82c4.36,17.43 15.25,31.38 32.25,41.4 17,10.03 35.74,15.26 55.79,15.26 23.97,0 45.32,-5.67 63.19,-16.57 18.31,-11.33 29.64,-27.45 33.56,-48.37 0.87,-4.8 1.31,-9.59 1.31,-13.51 0,-29.2 -19.62,-50.12 -52.3,-61.02l-20.92 -6.97c-9.59,-3.05 -14.39,-7.41 -14.39,-13.08 0,-7.41 7.41,-11.33 16.13,-11.33 10.9,0 20.05,5.23 23.54,15.25l56.22 -23.97c-8.28,-29.63 -39.66,-44.89 -74.53,-44.89 -44.89,0 -81.06,20.05 -89.34,58.4 -1.31,6.98 -1.75,11.77 -1.75,14.39 0,27.45 17.87,46.63 47.94,57.09l21.36 7.41c10.02,3.05 17.87,9.15 17.87,16.56 0,10.03 -10.03,15.25 -22.67,15.25 -17.43,0 -30.07,-10.02 -34.86,-25.71l-58.4 24.41zm348.22 -226.2l-38.78 0 -101.12 125.09 46.64 0 -29.2 150.79 68.86 0 29.2 -150.79 57.09 0 11.77 -59.71 -57.09 0 12.63 -65.38z"/>
 </g>
</svg>
